<svg xmlns="http://www.w3.org/2000/svg" version="1.1" xmlns:xlink="http://www.w3.org/1999/xlink" xmlns:svgjs="http://svgjs.dev/svgjs" width="1500" height="1500" viewBox="0 0 1500 1500"><rect width="1500" height="1500" fill="#ffffff"></rect><g transform="matrix(0.6666666666666666,0,0,0.6666666666666666,249.39393939393938,670.6278399549112)"><svg viewBox="0 0 396 63" data-background-color="#ffffff" preserveAspectRatio="xMidYMid meet" height="238" width="1500" xmlns="http://www.w3.org/2000/svg" xmlns:xlink="http://www.w3.org/1999/xlink"><g id="tight-bounds" transform="matrix(1,0,0,1,0.2400000000000091,0.015416488491098335)"><svg viewBox="0 0 395.52 62.96916702301783" height="62.96916702301783" width="395.52"><g><svg viewBox="0 0 486.13683816212387 77.39591362831858" height="62.96916702301783" width="395.52"><g transform="matrix(1,0,0,1,0,10.696540884955756)"><svg viewBox="0 0 395.52 56.00283185840707" height="56.00283185840707" width="395.52"><g id="textblocktransform"><svg viewBox="0 0 395.52 56.00283185840707" height="56.00283185840707" width="395.52" id="textblock"><g><svg viewBox="0 0 395.52 56.00283185840707" height="56.00283185840707" width="395.52"><g transform="matrix(1,0,0,1,0,0)"><svg width="395.52" viewBox="4.45 -35.5 254.23000000000002 36" height="56.00283185840707" data-palette-color="#1e55b3"><path d="M28.45 0L4.45 0 4.45-35.5 7.95-35.5 7.95-3.1 28.45-3.1 28.45 0ZM43.6 0.5L43.6 0.5Q40.8 0.5 38.4-0.58 36-1.65 34.25-3.53 32.5-5.4 31.52-7.85 30.55-10.3 30.55-13.1L30.55-13.1Q30.55-16.75 32.22-19.8 33.9-22.85 36.85-24.68 39.8-26.5 43.55-26.5L43.55-26.5Q47.4-26.5 50.27-24.65 53.15-22.8 54.8-19.78 56.45-16.75 56.45-13.15L56.45-13.15Q56.45-12.75 56.45-12.38 56.45-12 56.4-11.8L56.4-11.8 34.1-11.8Q34.35-9 35.67-6.83 37-4.65 39.12-3.38 41.25-2.1 43.75-2.1L43.75-2.1Q46.3-2.1 48.57-3.4 50.85-4.7 51.75-6.8L51.75-6.8 54.7-6Q53.9-4.15 52.25-2.65 50.6-1.15 48.37-0.33 46.15 0.5 43.6 0.5ZM34-14.25L34-14.25 53.25-14.25Q53.05-17.1 51.72-19.25 50.4-21.4 48.27-22.63 46.15-23.85 43.6-23.85L43.6-23.85Q41.05-23.85 38.95-22.63 36.85-21.4 35.52-19.23 34.2-17.05 34-14.25ZM59.6-7.5L59.6-7.5Q59.6-9.95 61-11.73 62.4-13.5 64.87-14.48 67.35-15.45 70.6-15.45L70.6-15.45Q72.5-15.45 74.55-15.15 76.6-14.85 78.2-14.25L78.2-14.25 78.2-16.45Q78.2-19.75 76.25-21.7 74.3-23.65 70.85-23.65L70.85-23.65Q68.75-23.65 66.72-22.88 64.7-22.1 62.5-20.6L62.5-20.6 61.2-23Q63.75-24.75 66.2-25.63 68.65-26.5 71.2-26.5L71.2-26.5Q76-26.5 78.8-23.75 81.6-21 81.6-16.15L81.6-16.15 81.6-4.1Q81.6-3.4 81.9-3.08 82.2-2.75 82.85-2.7L82.85-2.7 82.85 0Q82.3 0.05 81.9 0.1 81.5 0.15 81.3 0.1L81.3 0.1Q80.05 0.05 79.4-0.7 78.75-1.45 78.7-2.3L78.7-2.3 78.65-4.2Q76.9-1.95 74.1-0.73 71.3 0.5 68.4 0.5L68.4 0.5Q65.9 0.5 63.87-0.58 61.85-1.65 60.72-3.48 59.6-5.3 59.6-7.5ZM77.05-5.5L77.05-5.5Q77.6-6.2 77.9-6.85 78.2-7.5 78.2-8L78.2-8 78.2-11.8Q76.5-12.45 74.67-12.8 72.85-13.15 71-13.15L71-13.15Q67.35-13.15 65.1-11.7 62.85-10.25 62.85-7.75L62.85-7.75Q62.85-6.3 63.6-5.03 64.35-3.75 65.8-2.93 67.25-2.1 69.2-2.1L69.2-2.1Q71.65-2.1 73.77-3.05 75.9-4 77.05-5.5ZM101.94-26.15L101.94-23.05Q98.54-22.95 95.97-21.15 93.39-19.35 92.34-16.2L92.34-16.2 92.34 0 88.94 0 88.94-26.05 92.14-26.05 92.14-19.8Q93.49-22.55 95.72-24.25 97.94-25.95 100.44-26.15L100.44-26.15Q100.94-26.2 101.32-26.2 101.69-26.2 101.94-26.15L101.94-26.15ZM128.39-15.25L128.39 0 124.99 0 124.99-14.55Q124.99-19.15 123.64-21.28 122.29-23.4 119.39-23.4L119.39-23.4Q117.39-23.4 115.44-22.43 113.49-21.45 112.02-19.78 110.54-18.1 109.89-15.95L109.89-15.95 109.89 0 106.49 0 106.49-26.05 109.59-26.05 109.59-20.15Q110.64-22.05 112.34-23.48 114.04-24.9 116.19-25.7 118.34-26.5 120.64-26.5L120.64-26.5Q122.79-26.5 124.29-25.7 125.79-24.9 126.69-23.43 127.59-21.95 127.99-19.88 128.39-17.8 128.39-15.25L128.39-15.25ZM155.54 0L134.09 0Q134.09-1.7 134.39-3.43 134.69-5.15 135.54-6.85 136.39-8.55 138.04-10.13 139.69-11.7 142.39-13.1L142.39-13.1Q143.84-13.85 145.39-14.58 146.94-15.3 148.31-16.18 149.69-17.05 150.51-18.18 151.34-19.3 151.34-20.85L151.34-20.85Q151.34-22.1 150.61-23.3 149.89-24.5 148.41-25.25 146.94-26 144.74-26L144.74-26Q143.14-26 141.84-25.55 140.54-25.1 139.54-24.43 138.54-23.75 137.84-23.08 137.14-22.4 136.69-21.95L136.69-21.95 134.54-24.3Q134.79-24.6 135.66-25.38 136.54-26.15 137.91-27 139.29-27.85 141.16-28.45 143.04-29.05 145.29-29.05L145.29-29.05Q148.34-29.05 150.51-27.98 152.69-26.9 153.84-25.1 154.99-23.3 154.99-21.2L154.99-21.2Q154.99-19.15 154.11-17.68 153.24-16.2 151.86-15.13 150.49-14.05 149.01-13.28 147.54-12.5 146.34-11.95L146.34-11.95Q143.99-10.85 142.39-9.75 140.79-8.65 139.84-7.53 138.89-6.4 138.36-5.33 137.84-4.25 137.64-3.1L137.64-3.1 155.54-3.1 155.54 0ZM165.89-3.1L186.24-3.1 186.24 0 162.39 0 162.39-35.5 185.79-35.5 185.79-32.4 165.89-32.4 165.89-19.6 183.24-19.6 183.24-16.65 165.89-16.65 165.89-3.1ZM189.88-7.5L189.88-7.5Q189.88-9.95 191.28-11.73 192.68-13.5 195.16-14.48 197.63-15.45 200.88-15.45L200.88-15.45Q202.78-15.45 204.83-15.15 206.88-14.85 208.48-14.25L208.48-14.25 208.48-16.45Q208.48-19.75 206.53-21.7 204.58-23.65 201.13-23.65L201.13-23.65Q199.03-23.65 197.01-22.88 194.98-22.1 192.78-20.6L192.78-20.6 191.48-23Q194.03-24.75 196.48-25.63 198.93-26.5 201.48-26.5L201.48-26.5Q206.28-26.5 209.08-23.75 211.88-21 211.88-16.15L211.88-16.15 211.88-4.1Q211.88-3.4 212.18-3.08 212.48-2.75 213.13-2.7L213.13-2.7 213.13 0Q212.58 0.05 212.18 0.1 211.78 0.15 211.58 0.1L211.58 0.1Q210.33 0.05 209.68-0.7 209.03-1.45 208.98-2.3L208.98-2.3 208.93-4.2Q207.18-1.95 204.38-0.73 201.58 0.5 198.68 0.5L198.68 0.5Q196.18 0.5 194.16-0.58 192.13-1.65 191.01-3.48 189.88-5.3 189.88-7.5ZM207.33-5.5L207.33-5.5Q207.88-6.2 208.18-6.85 208.48-7.5 208.48-8L208.48-8 208.48-11.8Q206.78-12.45 204.96-12.8 203.13-13.15 201.28-13.15L201.28-13.15Q197.63-13.15 195.38-11.7 193.13-10.25 193.13-7.75L193.13-7.75Q193.13-6.3 193.88-5.03 194.63-3.75 196.08-2.93 197.53-2.1 199.48-2.1L199.48-2.1Q201.93-2.1 204.06-3.05 206.18-4 207.33-5.5ZM232.23-26.15L232.23-23.05Q228.83-22.95 226.26-21.15 223.68-19.35 222.63-16.2L222.63-16.2 222.63 0 219.23 0 219.23-26.05 222.43-26.05 222.43-19.8Q223.78-22.55 226.01-24.25 228.23-25.95 230.73-26.15L230.73-26.15Q231.23-26.2 231.61-26.2 231.98-26.2 232.23-26.15L232.23-26.15ZM258.68-15.25L258.68 0 255.28 0 255.28-14.55Q255.28-19.15 253.93-21.28 252.58-23.4 249.68-23.4L249.68-23.4Q247.68-23.4 245.73-22.43 243.78-21.45 242.3-19.78 240.83-18.1 240.18-15.95L240.18-15.95 240.18 0 236.78 0 236.78-26.05 239.88-26.05 239.88-20.15Q240.93-22.05 242.63-23.48 244.33-24.9 246.48-25.7 248.63-26.5 250.93-26.5L250.93-26.5Q253.08-26.5 254.58-25.7 256.08-24.9 256.98-23.43 257.88-21.95 258.28-19.88 258.68-17.8 258.68-15.25L258.68-15.25Z" opacity="1" transform="matrix(1,0,0,1,0,0)" fill="#1e55b3" class="wordmark-text-0" data-fill-palette-color="primary" id="text-0"></path></svg></g></svg></g></svg></g></svg></g><g transform="matrix(1,0,0,1,408.7409245338053,0)"><svg viewBox="0 0 77.39591362831858 77.39591362831858" height="77.39591362831858" width="77.39591362831858"><g data-palette-color="#ff585f"><rect width="21.15488305840708" height="77.39591362831858" fill="#ff585f" stroke="transparent" data-fill-palette-color="accent" x="0" fill-opacity="1"></rect><rect width="21.15488305840708" height="77.39591362831858" fill="#ff585f" stroke="transparent" data-fill-palette-color="accent" x="25.798637876106195" fill-opacity="0.75"></rect><rect width="21.15488305840708" height="77.39591362831858" fill="#ff585f" stroke="transparent" data-fill-palette-color="accent" x="51.59727575221239" fill-opacity="0.5"></rect></g></svg></g></svg></g><defs></defs></svg><rect width="395.52" height="62.96916702301783" fill="none" stroke="none" visibility="hidden"></rect></g></svg></g></svg>